<?xml version="1.0" encoding="UTF-8"?>
<svg xmlns="http://www.w3.org/2000/svg" viewBox="0 0 24 24" fill="none" stroke="currentColor" stroke-width="2" stroke-linecap="round" stroke-linejoin="round">
  <!-- Container -->
  <rect x="2" y="2" width="20" height="20" rx="4"/>
  <!-- Palette shape -->
  <path d="M12 6C8.5 6 6 8.5 6 12s2.5 6 6 6c.7 0 1.2-.5 1.2-1.2c0-.3-.1-.6-.3-.8c-.2-.2-.3-.5-.3-.8c0-.7.5-1.2 1.2-1.2h1.4c1.8 0 3.3-1.5 3.3-3.3C18 7.5 15.5 6 12 6z"/>
  <!-- Color dots -->
  <circle cx="9" cy="11" r="0.5"/>
  <circle cx="12" cy="9" r="0.5"/>
  <circle cx="15" cy="11" r="0.5"/>
</svg>
